<svg width="68" height="68" viewBox="0 0 68 68" fill="none" xmlns="http://www.w3.org/2000/svg">
<g filter="url(#filter0_d_777_361)">
<rect x="10" width="48" height="48" rx="10" fill="#1A1A1A"/>
<rect x="10.5" y="0.5" width="47" height="47" rx="9.5" stroke="#8E66FF"/>
</g>
<path d="M34.047 36.5312H22.5216C22.3828 36.5331 22.2451 36.5071 22.1165 36.4549C21.988 36.4026 21.8712 36.3251 21.7731 36.227C21.675 36.1289 21.5975 36.0121 21.5452 35.8835C21.493 35.755 21.467 35.6173 21.4688 35.4785V23.9531C21.4688 20.6172 22.794 17.4179 25.1529 15.059C27.5117 12.7002 30.711 11.375 34.047 11.375V11.375C35.6987 11.375 37.3344 11.7003 38.8604 12.3325C40.3865 12.9646 41.7731 13.8911 42.941 15.059C44.109 16.227 45.0355 17.6136 45.6676 19.1397C46.2997 20.6657 46.6251 22.3013 46.6251 23.9531V23.9531C46.6251 25.6049 46.2997 27.2405 45.6676 28.7666C45.0355 30.2926 44.109 31.6792 42.941 32.8472C41.7731 34.0152 40.3865 34.9417 38.8604 35.5738C37.3344 36.2059 35.6987 36.5312 34.047 36.5312V36.5312Z" stroke="#8E66FF" stroke-width="2" stroke-linecap="round" stroke-linejoin="round"/>
<path d="M34.0469 26.1406C34.953 26.1406 35.6875 25.4061 35.6875 24.5C35.6875 23.5939 34.953 22.8594 34.0469 22.8594C33.1408 22.8594 32.4062 23.5939 32.4062 24.5C32.4062 25.4061 33.1408 26.1406 34.0469 26.1406Z" fill="#8E66FF"/>
<path d="M27.4844 26.1406C28.3905 26.1406 29.125 25.4061 29.125 24.5C29.125 23.5939 28.3905 22.8594 27.4844 22.8594C26.5783 22.8594 25.8438 23.5939 25.8438 24.5C25.8438 25.4061 26.5783 26.1406 27.4844 26.1406Z" fill="#8E66FF"/>
<path d="M40.6094 26.1406C41.5155 26.1406 42.25 25.4061 42.25 24.5C42.25 23.5939 41.5155 22.8594 40.6094 22.8594C39.7033 22.8594 38.9688 23.5939 38.9688 24.5C38.9688 25.4061 39.7033 26.1406 40.6094 26.1406Z" fill="#8E66FF"/>
<defs>
<filter id="filter0_d_777_361" x="0" y="0" width="68" height="68" filterUnits="userSpaceOnUse" color-interpolation-filters="sRGB">
<feFlood flood-opacity="0" result="BackgroundImageFix"/>
<feColorMatrix in="SourceAlpha" type="matrix" values="0 0 0 0 0 0 0 0 0 0 0 0 0 0 0 0 0 0 127 0" result="hardAlpha"/>
<feOffset dy="10"/>
<feGaussianBlur stdDeviation="5"/>
<feComposite in2="hardAlpha" operator="out"/>
<feColorMatrix type="matrix" values="0 0 0 0 0 0 0 0 0 0 0 0 0 0 0 0 0 0 0.25 0"/>
<feBlend mode="normal" in2="BackgroundImageFix" result="effect1_dropShadow_777_361"/>
<feBlend mode="normal" in="SourceGraphic" in2="effect1_dropShadow_777_361" result="shape"/>
</filter>
</defs>
</svg>
