<svg width="25" height="25" viewBox="0 0 25 25" fill="none" xmlns="http://www.w3.org/2000/svg">
<path d="M9.375 11.7188C13.6897 11.7188 17.1875 10.1448 17.1875 8.20312C17.1875 6.2615 13.6897 4.6875 9.375 4.6875C5.06028 4.6875 1.5625 6.2615 1.5625 8.20312C1.5625 10.1448 5.06028 11.7188 9.375 11.7188Z" stroke="white" stroke-linecap="round" stroke-linejoin="round"/>
<path d="M1.5625 8.20312V12.1094C1.5625 14.0527 5.05859 15.625 9.375 15.625C13.6914 15.625 17.1875 14.0527 17.1875 12.1094V8.20312" stroke="white" stroke-linecap="round" stroke-linejoin="round"/>
<path d="M6.25 11.4258V15.332" stroke="white" stroke-linecap="round" stroke-linejoin="round"/>
<path d="M17.1875 9.44336C20.752 9.77539 23.4375 11.1914 23.4375 12.8906C23.4375 14.834 19.9414 16.4062 15.625 16.4062C13.7109 16.4062 11.9531 16.0938 10.5957 15.5859" stroke="white" stroke-linecap="round" stroke-linejoin="round"/>
<path d="M7.8125 15.5566V16.7969C7.8125 18.7402 11.3086 20.3125 15.625 20.3125C19.9414 20.3125 23.4375 18.7402 23.4375 16.7969V12.8906" stroke="white" stroke-linecap="round" stroke-linejoin="round"/>
<path d="M18.75 16.1133V20.0195" stroke="white" stroke-linecap="round" stroke-linejoin="round"/>
<path d="M12.5 11.4258V20.0195" stroke="white" stroke-linecap="round" stroke-linejoin="round"/>
</svg>
