<svg width="39" height="39" viewBox="0 0 39 39" fill="none" xmlns="http://www.w3.org/2000/svg">
<path d="M6.87088 29.8596C6.90987 30.0198 6.98056 30.1706 7.0788 30.303C7.17704 30.4354 7.30082 30.5468 7.44284 30.6306C7.58485 30.7144 7.74222 30.7689 7.90564 30.7908C8.06907 30.8128 8.23523 30.8018 8.39432 30.7584C15.6565 28.7476 23.3286 28.7476 30.5908 30.7584C30.7499 30.8018 30.9161 30.8128 31.0795 30.7908C31.2429 30.7689 31.4003 30.7144 31.5423 30.6306C31.6843 30.5468 31.8081 30.4354 31.9063 30.303C32.0046 30.1706 32.0753 30.0198 32.1142 29.8596L35.999 13.3608C36.0523 13.1399 36.0429 12.9086 35.9717 12.6928C35.9006 12.4771 35.7705 12.2855 35.5962 12.1397C35.4219 11.994 35.2104 11.8999 34.9855 11.8679C34.7605 11.836 34.5312 11.8676 34.3232 11.9592L26.6146 15.3869C26.3353 15.5099 26.0204 15.525 25.7306 15.4294C25.4408 15.3337 25.1967 15.134 25.0455 14.869L20.5666 6.79474C20.4612 6.60425 20.3067 6.44547 20.1192 6.3349C19.9316 6.22433 19.7179 6.16602 19.5002 6.16602C19.2825 6.16602 19.0687 6.22433 18.8812 6.3349C18.6937 6.44547 18.5392 6.60425 18.4338 6.79474L13.9549 14.869C13.8037 15.134 13.5596 15.3337 13.2698 15.4294C12.98 15.525 12.665 15.5099 12.3857 15.3869L4.67713 11.9592C4.4692 11.8676 4.23983 11.836 4.01489 11.8679C3.78995 11.8999 3.57841 11.994 3.40414 12.1397C3.22987 12.2855 3.09981 12.4771 3.02863 12.6928C2.95746 12.9086 2.94801 13.1399 3.00135 13.3608L6.87088 29.8596Z" stroke="#F2F2F2" stroke-width="2" stroke-linecap="round" stroke-linejoin="round"/>
</svg>
