<svg width="23" height="23" viewBox="0 0 23 23" fill="none" xmlns="http://www.w3.org/2000/svg">
<path d="M12.4583 7.66667V0.958333C12.4583 0.681481 12.5488 0.452546 12.7299 0.271528C12.9109 0.0905094 13.1398 0 13.4167 0H22.0417C22.3185 0 22.5475 0.0905094 22.7285 0.271528C22.9095 0.452546 23 0.681481 23 0.958333V7.66667C23 7.94352 22.9095 8.17245 22.7285 8.35347C22.5475 8.53449 22.3185 8.625 22.0417 8.625H13.4167C13.1398 8.625 12.9109 8.53449 12.7299 8.35347C12.5488 8.17245 12.4583 7.94352 12.4583 7.66667ZM0 11.5V0.958333C0 0.681481 0.0905094 0.452546 0.271528 0.271528C0.452546 0.0905094 0.681481 0 0.958333 0H9.58333C9.86019 0 10.0891 0.0905094 10.2701 0.271528C10.4512 0.452546 10.5417 0.681481 10.5417 0.958333V11.5C10.5417 11.7769 10.4512 12.0058 10.2701 12.1868C10.0891 12.3678 9.86019 12.4583 9.58333 12.4583H0.958333C0.681481 12.4583 0.452546 12.3678 0.271528 12.1868C0.0905094 12.0058 0 11.7769 0 11.5ZM12.4583 22.0417V11.5C12.4583 11.2231 12.5488 10.9942 12.7299 10.8132C12.9109 10.6322 13.1398 10.5417 13.4167 10.5417H22.0417C22.3185 10.5417 22.5475 10.6322 22.7285 10.8132C22.9095 10.9942 23 11.2231 23 11.5V22.0417C23 22.3185 22.9095 22.5475 22.7285 22.7285C22.5475 22.9095 22.3185 23 22.0417 23H13.4167C13.1398 23 12.9109 22.9095 12.7299 22.7285C12.5488 22.5475 12.4583 22.3185 12.4583 22.0417ZM0 22.0417V15.3333C0 15.0565 0.0905094 14.8275 0.271528 14.6465C0.452546 14.4655 0.681481 14.375 0.958333 14.375H9.58333C9.86019 14.375 10.0891 14.4655 10.2701 14.6465C10.4512 14.8275 10.5417 15.0565 10.5417 15.3333V22.0417C10.5417 22.3185 10.4512 22.5475 10.2701 22.7285C10.0891 22.9095 9.86019 23 9.58333 23H0.958333C0.681481 23 0.452546 22.9095 0.271528 22.7285C0.0905094 22.5475 0 22.3185 0 22.0417ZM1.91667 10.5417H8.625V1.91667H1.91667V10.5417ZM14.375 21.0833H21.0833V12.4583H14.375V21.0833ZM14.375 6.70833H21.0833V1.91667H14.375V6.70833ZM1.91667 21.0833H8.625V16.2917H1.91667V21.0833Z" fill="#F2F2F2"/>
</svg>
