<svg width="37" height="37" viewBox="0 0 37 37" fill="none" xmlns="http://www.w3.org/2000/svg">
<path d="M21.9688 15.6094H26.5938" stroke="#F2F2F2" stroke-width="2" stroke-linecap="round" stroke-linejoin="round"/>
<path d="M10.4062 15.6094H15.0312" stroke="#F2F2F2" stroke-width="2" stroke-linecap="round" stroke-linejoin="round"/>
<path d="M12.7188 13.2969V17.9219" stroke="#F2F2F2" stroke-width="2" stroke-linecap="round" stroke-linejoin="round"/>
<path d="M24.8592 8.05078L12.1405 8.09414C10.3739 8.0975 8.66481 8.72184 7.31205 9.85794C5.95929 10.994 5.04903 12.5696 4.74048 14.309V14.309L2.37017 26.4641C2.21797 27.3129 2.34091 28.1881 2.72104 28.9622C3.10117 29.7362 3.71863 30.3686 4.48338 30.7671C5.24814 31.1656 6.1202 31.3094 6.97241 31.1776C7.82462 31.0457 8.61242 30.645 9.22095 30.034V30.034L15.4647 23.1254L24.8592 23.082C26.8525 23.082 28.7641 22.2902 30.1736 20.8808C31.583 19.4713 32.3749 17.5597 32.3749 15.5664C32.3749 13.5731 31.583 11.6615 30.1736 10.2521C28.7641 8.8426 26.8525 8.05078 24.8592 8.05078V8.05078Z" stroke="#F2F2F2" stroke-width="2" stroke-linecap="round" stroke-linejoin="round"/>
<path d="M32.2594 14.2656L34.6297 26.4641C34.7819 27.3129 34.6589 28.1881 34.2788 28.9622C33.8987 29.7362 33.2812 30.3686 32.5165 30.7671C31.7517 31.1656 30.8797 31.3094 30.0274 31.1776C29.1752 31.0457 28.3874 30.645 27.7789 30.034V30.034L21.5352 23.0965" stroke="#F2F2F2" stroke-width="2" stroke-linecap="round" stroke-linejoin="round"/>
</svg>
