<svg width="31" height="31" viewBox="0 0 31 31" fill="none" xmlns="http://www.w3.org/2000/svg">
<path d="M15.5 0C6.9401 0 0 6.9401 0 15.5C0 24.0599 6.9401 31 15.5 31C24.0599 31 31 24.0599 31 15.5C31 6.9401 24.0599 0 15.5 0ZM1.76563 16.362H5.19531C5.27344 18.5182 5.64583 20.5547 6.2526 22.388H3.58073C2.54167 20.5964 1.90104 18.5495 1.76563 16.362ZM16.362 6.88802V1.79167C18.7266 2.16667 20.8073 4.07813 22.2161 6.88802H16.362ZM22.9505 8.61198C23.599 10.4036 24 12.4505 24.0833 14.638H16.362V8.61198H22.9505ZM14.638 1.79167V6.88802H8.78385C10.1927 4.07813 12.2734 2.16667 14.638 1.79167ZM14.638 8.61198V14.638H6.91667C7 12.4505 7.40104 10.4036 8.04948 8.61198H14.638ZM5.19531 14.638H1.76563C1.90104 12.4505 2.54167 10.4036 3.58073 8.61198H6.2526C5.64583 10.4453 5.27604 12.4818 5.19531 14.638ZM6.91667 16.362H14.638V22.388H8.04948C7.40104 20.5964 7 18.5495 6.91667 16.362ZM14.638 24.112V29.2083C12.2734 28.8307 10.1927 26.9219 8.78385 24.112H14.638ZM16.362 29.2083V24.112H22.2161C20.8073 26.9219 18.7266 28.8307 16.362 29.2083ZM16.362 22.388V16.362H24.0833C24 18.5495 23.599 20.5964 22.9505 22.388H16.362ZM25.8047 16.362H29.2344C29.099 18.5495 28.4583 20.5964 27.4193 22.388H24.7474C25.3542 20.5547 25.724 18.5182 25.8047 16.362ZM25.8047 14.638C25.724 12.4818 25.3542 10.4453 24.7474 8.61198H27.4193C28.4583 10.4036 29.099 12.4505 29.2344 14.638H25.8047ZM26.2448 6.88802H24.0911C23.474 5.50781 22.7083 4.29167 21.8359 3.27344C23.5469 4.16146 25.0495 5.39583 26.2448 6.88802ZM9.16406 3.27344C8.29167 4.29167 7.52604 5.50781 6.90885 6.88802H4.75521C5.95052 5.39583 7.45313 4.16146 9.16406 3.27344ZM4.75521 24.112H6.90885C7.52604 25.4922 8.29167 26.7083 9.16406 27.7266C7.45313 26.8385 5.95052 25.6042 4.75521 24.112ZM21.8359 27.7266C22.7083 26.7057 23.474 25.4922 24.0911 24.112H26.2448C25.0495 25.6042 23.5469 26.8385 21.8359 27.7266Z" fill="#8E66FF"/>
</svg>
