<svg width="40" height="40" viewBox="0 0 40 40" fill="none" xmlns="http://www.w3.org/2000/svg">
<g clip-path="url(#clip0_6_4)">
<path d="M20 0C8.95497 0 0 8.95497 0 20C0 31.045 8.95497 40 20 40C31.045 40 40 31.045 40 20C40 8.95497 31.045 0 20 0ZM2.27823 21.1122H6.70363C6.80444 23.8945 7.28495 26.5222 8.06788 28.8878H4.6203C3.27957 26.5759 2.45296 23.9348 2.27823 21.1122ZM21.1122 8.88777V2.31183C24.1633 2.7957 26.8481 5.2621 28.666 8.88777H21.1122ZM29.6136 11.1122C30.4503 13.4241 30.9677 16.0652 31.0753 18.8878H21.1122V11.1122H29.6136ZM18.8878 2.31183V8.88777H11.334C13.1519 5.2621 15.8367 2.7957 18.8878 2.31183ZM18.8878 11.1122V18.8878H8.92473C9.03226 16.0652 9.54973 13.4241 10.3864 11.1122H18.8878ZM6.70363 18.8878H2.27823C2.45296 16.0652 3.27957 13.4241 4.6203 11.1122H8.06788C7.28495 13.4778 6.8078 16.1055 6.70363 18.8878ZM8.92473 21.1122H18.8878V28.8878H10.3864C9.54973 26.5759 9.03226 23.9348 8.92473 21.1122ZM18.8878 31.1122V37.6882C15.8367 37.2009 13.1519 34.7379 11.334 31.1122H18.8878ZM21.1122 37.6882V31.1122H28.666C26.8481 34.7379 24.1633 37.2009 21.1122 37.6882ZM21.1122 28.8878V21.1122H31.0753C30.9677 23.9348 30.4503 26.5759 29.6136 28.8878H21.1122ZM33.2964 21.1122H37.7218C37.547 23.9348 36.7204 26.5759 35.3797 28.8878H31.9321C32.7151 26.5222 33.1922 23.8945 33.2964 21.1122ZM33.2964 18.8878C33.1922 16.1055 32.7151 13.4778 31.9321 11.1122H35.3797C36.7204 13.4241 37.547 16.0652 37.7218 18.8878H33.2964ZM33.8642 8.88777H31.0854C30.289 7.10686 29.3011 5.53763 28.1754 4.22379C30.3831 5.36962 32.3219 6.96237 33.8642 8.88777ZM11.8246 4.22379C10.6989 5.53763 9.71102 7.10686 8.91465 8.88777H6.13575C7.67809 6.96237 9.61694 5.36962 11.8246 4.22379ZM6.13575 31.1122H8.91465C9.71102 32.8931 10.6989 34.4624 11.8246 35.7762C9.61694 34.6304 7.67809 33.0376 6.13575 31.1122ZM28.1754 35.7762C29.3011 34.459 30.289 32.8931 31.0854 31.1122H33.8642C32.3219 33.0376 30.3831 34.6304 28.1754 35.7762Z" fill="#F2F2F2"/>
</g>
<defs>
<clipPath id="clip0_6_4">
<rect width="40" height="40" fill="white"/>
</clipPath>
</defs>
</svg>
