<svg width="21" height="21" viewBox="0 0 21 21" fill="none" xmlns="http://www.w3.org/2000/svg">
<circle cx="10.5" cy="10.5" r="10" stroke="#F2994A"/>
<path d="M5.825 14C5.605 14 5.4125 13.925 5.2475 13.775C5.0825 13.625 5 13.45 5 13.25V6.75C5 6.55 5.0825 6.375 5.2475 6.225C5.4125 6.075 5.605 6 5.825 6H15.175C15.395 6 15.5875 6.075 15.7525 6.225C15.9175 6.375 16 6.55 16 6.75V13.25C16 13.45 15.9175 13.625 15.7525 13.775C15.5875 13.925 15.395 14 15.175 14H5.825ZM15.175 7.4375L10.72 10.0875C10.6833 10.1042 10.649 10.1188 10.6169 10.1312C10.5848 10.1437 10.5458 10.15 10.5 10.15C10.4542 10.15 10.4152 10.1437 10.3831 10.1312C10.351 10.1188 10.3167 10.1042 10.28 10.0875L5.825 7.4375V13.25H15.175V7.4375ZM10.5 9.475L15.12 6.75H5.89375L10.5 9.475ZM5.825 7.4375V7.525V7.03125V7.0375V6.75V7.0375V7.025V7.525V7.4375V13.25V7.4375Z" fill="#F2F2F2"/>
</svg>
