<svg width="52" height="52" viewBox="0 0 52 52" fill="none" xmlns="http://www.w3.org/2000/svg">
<path d="M26.0568 33.4348C25.9825 33.4348 25.9039 33.4217 25.8296 33.4042L25.62 33.3431C25.4278 33.2776 25.2967 33.2077 25.1744 33.1116C19.6704 28.8263 19.3602 25.9083 19.3952 25.1176C19.4345 24.2396 20.0854 23.5756 20.9066 23.5756C21.3653 23.5756 21.7409 23.9469 21.7409 24.4056C21.7409 24.8075 21.4483 25.1482 21.0639 25.2181C21.0726 25.6287 21.3478 27.9963 26.0874 31.7137C31.076 27.7954 31.1196 25.3797 31.1153 25.2006C30.7309 25.122 30.4426 24.79 30.4426 24.3837C30.4426 23.9251 30.8139 23.5538 31.2769 23.5538C32.0807 23.5538 32.7403 24.2396 32.7796 25.1176C32.8145 25.9126 32.5 28.8307 27.0003 33.1116C26.878 33.2033 26.7776 33.2514 26.3014 33.3955C26.2228 33.4217 26.1398 33.4348 26.0568 33.4348Z" fill="#F2F2F2"/>
<path d="M21.2342 25.2967C21.2255 25.2967 21.208 25.3229 21.2036 25.3666C21.208 25.5807 21.1294 25.834 20.9809 25.9913L20.9197 26.0568C20.9022 26.0743 20.8848 26.0874 20.8673 26.1048L20.6882 26.2621C19.9106 26.9348 18.9496 27.4197 17.8313 27.6993C17.7134 27.7255 17.578 27.7604 17.4338 27.791C15.2278 28.3152 10.0514 29.5339 9.77185 35.9815C9.69759 37.7245 9.61459 39.3626 9.52723 40.8565C9.36123 43.6872 11.1435 46.2776 13.8562 47.1556L21.4788 49.6193C24.4056 50.5628 27.5901 50.5672 30.5124 49.6368C32.9194 48.868 35.8767 47.9244 38.3055 47.1469C41.0269 46.2732 42.8135 43.6828 42.6475 40.8434C42.5602 39.3582 42.4815 37.7245 42.4029 35.9815C42.1277 29.5339 36.9513 28.3152 34.7409 27.791C34.5968 27.7604 34.4657 27.7255 34.3434 27.6993C33.1989 27.411 32.2204 26.913 31.4341 26.2141C31.4123 26.1966 31.3905 26.1747 31.373 26.1529C31.2813 26.0568 31.0891 25.8209 31.0366 25.7379L30.9624 25.6549C30.8794 25.5632 30.8182 25.454 30.7833 25.336C30.7789 25.3186 30.7614 25.2705 30.7178 25.2705C30.626 25.3753 30.5387 25.4671 30.4076 25.5151C30.329 25.5457 30.2678 25.585 30.2154 25.6374C29.9489 25.9039 29.6082 26.2141 29.1757 26.5854C28.3152 27.328 27.2275 27.7386 26.1136 27.7386C24.9997 27.7386 23.912 27.328 23.0558 26.5897C22.6146 26.2097 22.2739 25.8995 22.0161 25.6374C21.9288 25.5501 21.8196 25.502 21.6929 25.4889C21.5269 25.4714 21.3696 25.4059 21.2386 25.3011C21.2386 25.3011 21.2386 25.2967 21.2342 25.2967ZM26.0262 51.9913C24.3051 51.9913 22.6059 51.7248 20.9634 51.1962L13.3407 48.7325C9.90727 47.623 7.65323 44.3424 7.86291 40.7604C7.95028 39.2752 8.02891 37.6415 8.10753 35.9116C8.43952 28.2104 14.9221 26.6815 17.0538 26.1791C17.1892 26.1485 17.3115 26.118 17.4207 26.0874C18.2769 25.8777 18.9977 25.5195 19.5699 25.0303C19.7272 24.2265 20.4217 23.628 21.243 23.628C21.5662 23.6455 21.8458 23.7285 22.0904 23.8727C22.5098 23.96 22.8985 24.1653 23.1999 24.4711C23.4315 24.7026 23.7416 24.9866 24.1435 25.336C25.2574 26.2927 26.9698 26.2927 28.0837 25.3317C28.4856 24.9909 28.7957 24.707 29.0316 24.4667C29.2063 24.292 29.4073 24.1522 29.63 24.043C29.914 23.7853 30.2766 23.6368 30.6653 23.6149C30.6653 23.6149 30.6653 23.6149 30.6697 23.6149C31.421 23.6149 32.0413 24.0299 32.3122 24.6721C32.3602 24.7288 32.4039 24.7856 32.4389 24.8424C32.4607 24.8686 32.5306 24.9516 32.5786 25.0084C33.1553 25.5108 33.8848 25.8733 34.754 26.0874C34.8632 26.118 34.9899 26.1485 35.121 26.1791C37.2527 26.6815 43.7396 28.2104 44.0716 35.9116C44.1458 37.6458 44.2245 39.2708 44.3118 40.7473C44.5215 44.3424 42.2631 47.6186 38.8165 48.7238C36.3834 49.5014 33.4305 50.4493 31.0235 51.2181C29.4029 51.7335 27.7211 51.9913 26.0262 51.9913Z" fill="#F2F2F2"/>
<path d="M38.4146 47.9244C37.956 47.9244 37.5847 47.5575 37.5803 47.1032C37.5279 40.4503 36.9076 34.5618 36.1344 33.413C35.1952 32.0108 31.622 30.8881 29.381 30.5386C28.9267 30.4687 28.6166 30.045 28.6865 29.5907C28.7607 29.1364 29.1845 28.835 29.6388 28.9005C29.8921 28.9399 35.7762 29.8834 37.5235 32.4913C39.1048 34.8545 39.2359 45.8451 39.2446 47.0901C39.249 47.5444 38.882 47.92 38.419 47.9244H38.4146Z" fill="#F2F2F2"/>
<path d="M13.7601 47.9375H13.7557C13.2927 47.9331 12.9257 47.5618 12.9257 47.1031C12.9388 45.8582 13.0655 34.8588 14.6556 32.4912C16.3985 29.8834 22.2826 28.9398 22.5359 28.9005C22.9946 28.8306 23.414 29.1364 23.4882 29.5907C23.5581 30.045 23.248 30.4687 22.7937 30.5386C20.5527 30.8881 16.9795 32.0107 16.0403 33.4129C15.2671 34.5662 14.6468 40.4546 14.5944 47.1162C14.59 47.5705 14.2187 47.9375 13.7601 47.9375Z" fill="#F2F2F2"/>
<path d="M26.0961 1.24494C26.1966 1.44151 26.3582 1.56382 26.5067 1.62935C26.332 1.55509 26.1878 1.41967 26.0961 1.24494ZM25.2923 23.6367C25.3185 23.6367 25.3841 23.6411 25.4714 23.6498L25.6462 23.6673C25.8515 23.6892 26.1441 23.6935 26.3713 23.6935H26.4805C26.6858 23.6848 26.8911 23.6892 27.0877 23.6673L27.3017 23.6498C27.3978 23.6411 27.4721 23.6367 27.5158 23.6367C27.6293 23.6105 28.3021 23.296 29.5994 22.1734C29.7218 22.0642 29.8441 21.955 29.9664 21.8457C30.9274 20.9721 31.504 20.2994 31.6001 20.0984C31.7093 19.88 31.9889 19.1156 32.2466 16.8179C32.2859 16.4815 32.5262 16.1976 32.8538 16.1102C33.0111 16.0665 33.1727 16.0709 33.3212 16.1189C33.4217 15.9573 33.544 15.7651 33.7318 15.5773C33.7537 15.5554 33.7668 15.503 33.8148 15.2759C33.876 14.957 33.9721 14.4765 34.2866 13.7994C34.4788 13.3757 34.5356 13.1048 34.5487 12.9476C34.339 12.9301 34.1381 12.8296 33.9939 12.6636C33.793 12.4277 33.7362 12.0957 33.8585 11.8074C33.8978 11.7113 33.9371 11.6196 33.9721 11.5235C34.0289 11.3793 34.0769 11.2352 34.125 11.0954L34.1556 10.9949C34.1992 10.8639 34.2386 10.7372 34.2691 10.6149C34.5225 9.53593 34.3565 8.01577 34.256 7.10717C34.2123 6.69655 34.1818 6.42572 34.1905 6.22914C34.1599 6.18109 33.959 6.00199 33.8148 5.87531C33.7318 5.80105 33.6488 5.72242 33.5615 5.6438C33.3562 5.44722 33.164 5.15892 32.9368 4.78761L32.5699 4.17169C32.4869 4.03627 32.3995 3.89212 32.3121 3.75233C32.2248 3.61255 32.1374 3.47713 32.0413 3.34171C31.9539 3.21066 31.8622 3.08398 31.7661 2.96604C31.6831 2.85683 31.5914 2.75199 31.4996 2.66026C31.4603 2.62095 31.4254 2.586 31.3904 2.55542C31.3031 2.48116 31.2201 2.42874 31.1283 2.38943C30.9449 2.31517 30.7265 2.31517 30.4556 2.3108H30.3552C30.2328 2.3108 30.1149 2.30643 29.9926 2.29769C29.748 2.27585 29.5339 2.23654 29.333 2.17101C28.8962 2.02249 28.3064 1.88707 27.6643 1.79097C27.2799 1.72982 27.0134 1.70361 26.913 1.69924C26.8212 1.70361 26.7339 1.69924 26.6465 1.6774C26.5635 1.67303 26.4761 1.66866 26.3669 1.66429C25.7947 1.65119 25.0128 1.6905 24.5148 1.83902C24.174 1.93949 23.8552 1.88271 23.6236 1.82155C23.3397 1.9526 23.0339 1.93949 22.881 1.93513C22.8242 1.93513 22.7675 1.93076 22.7107 1.93513C22.6058 2.12296 22.4093 2.41564 22.0292 2.56853C22.0248 2.56853 22.0205 2.57726 22.0161 2.58163C21.9244 2.6821 21.789 2.83499 21.5924 2.94857C21.3259 3.10582 21.0551 3.09709 20.8541 3.07088C20.7449 3.15388 20.6357 3.21503 20.5353 3.27182C20.4785 3.30677 20.3955 3.35045 20.3431 3.38976C20.3387 3.40724 20.3387 3.42034 20.3343 3.43781C20.2994 3.61255 20.2557 3.8528 20.0941 4.07995C19.9718 4.26342 19.8189 4.39447 19.7097 4.49057C19.6747 4.51678 19.6441 4.54299 19.6136 4.57357C19.5786 4.63035 19.5437 4.74393 19.5087 4.86624C19.4432 5.08902 19.3602 5.36423 19.1199 5.59138C18.6962 5.98889 18.67 6.13741 18.6744 6.24662C18.6831 6.44756 18.6438 6.65287 18.5957 6.94117C18.5608 7.14648 18.5128 7.39548 18.4822 7.68378L18.4734 7.74931C18.3817 8.56181 18.255 9.67135 18.4472 10.462C18.5302 10.8115 18.6919 11.2658 18.9234 11.8162C19.0544 12.1132 18.9933 12.4583 18.7748 12.6986C18.622 12.8689 18.4079 12.9607 18.1895 12.9694C18.207 13.1267 18.2681 13.3931 18.4516 13.7994C18.7661 14.4765 18.8622 14.957 18.9234 15.2759C18.9714 15.503 18.9845 15.5554 19.0064 15.5773C19.1855 15.7564 19.3034 15.9398 19.3995 16.0927C19.548 16.0403 19.7097 16.0272 19.8713 16.0665C20.2164 16.1451 20.4741 16.4334 20.5134 16.7829C20.7712 19.1112 21.0507 19.8757 21.1643 20.0984C21.5356 20.8541 24.5148 23.5013 25.2836 23.6367C25.2836 23.6367 25.288 23.6367 25.2923 23.6367ZM26.3582 25.3535C26.1966 25.3535 25.7772 25.3491 25.4933 25.3185C25.4365 25.3142 25.3622 25.3054 25.3011 25.3011L25.2224 25.2923C23.7459 25.2923 20.1771 21.8588 19.666 20.8323C19.3864 20.2644 19.1549 19.2816 18.9627 17.8357C18.4254 17.6915 18.1414 17.2241 18.0104 17.0144C17.9492 16.9096 17.8881 16.8091 17.8313 16.7567C17.4425 16.3723 17.3639 15.9617 17.2896 15.5991C17.2328 15.3152 17.1673 14.9919 16.9358 14.4896C16.464 13.463 16.3898 12.6374 16.7087 12.0302C16.796 11.8642 16.9096 11.7201 17.0494 11.6021C16.9533 11.3269 16.879 11.0736 16.8222 10.8464C16.5689 9.77182 16.713 8.49628 16.8179 7.56584L16.8266 7.49595C16.8615 7.16832 16.9096 6.88439 16.9533 6.65287C16.9795 6.50435 17.0057 6.3864 17.0057 6.30341C16.9707 5.50401 17.4207 4.9274 17.8881 4.46873C17.8968 4.44252 17.9012 4.41631 17.9099 4.3901C17.9667 4.20226 18.0541 3.91396 18.2463 3.63002C18.3642 3.45529 18.504 3.33298 18.6132 3.23687C18.6394 3.21503 18.6656 3.19756 18.6875 3.17572C18.6918 3.15824 18.6962 3.1364 18.7006 3.11893C18.7355 2.93983 18.788 2.67337 18.9714 2.42437C19.1898 2.1317 19.4738 1.9657 19.7009 1.83466C19.7752 1.79534 19.8888 1.72982 19.9193 1.69924C20.212 1.39783 20.5877 1.38472 20.8367 1.4022C20.9415 1.29299 21.0813 1.16194 21.2822 1.07021C21.3783 0.886739 21.5531 0.567854 21.955 0.410597C22.3132 0.270812 22.6451 0.270812 22.8767 0.27518C23.0951 0.117922 23.4358 0.030556 23.9644 0.192182C24.008 0.205287 24.0561 0.22276 24.1041 0.231496C24.9298 -2.20309e-05 25.9825 -2.20276e-05 26.4019 0.00871453C26.5504 0.00871453 26.6771 0.0174511 26.7688 0.0218193C26.7775 0.0261876 26.7819 0.0261876 26.7906 0.0261876C26.8474 0.030556 26.8955 0.0349242 26.9304 0.0436608C26.9392 0.0436608 26.9435 0.0436608 26.9479 0.0436608C27.2318 0.0436608 27.5638 0.0960801 27.922 0.148499C28.4375 0.231496 29.1932 0.375651 29.8615 0.594064C29.9314 0.620274 30.0188 0.633378 30.1236 0.642115C30.2066 0.650851 30.2896 0.650851 30.3726 0.650851H30.4644C30.8269 0.65522 31.2812 0.659588 31.7661 0.856161C32.0195 0.960999 32.2554 1.10952 32.4738 1.29736C32.548 1.35851 32.6223 1.42841 32.6966 1.50267C32.8276 1.63372 32.9543 1.78224 33.0766 1.93949C33.1945 2.08802 33.3081 2.24527 33.4173 2.40253C33.5222 2.55542 33.6226 2.71268 33.7231 2.86994C33.8192 3.02283 33.9109 3.17572 34.0027 3.32424L34.3609 3.92706C34.5968 4.31584 34.6841 4.41631 34.7147 4.44252C34.7846 4.51241 34.8589 4.57794 34.9287 4.63909C35.2258 4.90556 35.5316 5.18076 35.715 5.58264C35.8199 5.80979 35.8679 6.05005 35.8548 6.29904C35.8548 6.38203 35.8854 6.68345 35.9116 6.92807C36.0252 7.94151 36.213 9.64077 35.8898 10.9949C35.8505 11.1566 35.8024 11.3226 35.75 11.4929L35.7063 11.6196C35.8373 11.7332 35.9466 11.8686 36.0296 12.0302C36.3484 12.6374 36.2742 13.463 35.8024 14.4896C35.5709 14.9919 35.5054 15.3152 35.4486 15.5991C35.3743 15.9617 35.2957 16.3723 34.9069 16.7567C34.8501 16.8091 34.789 16.9096 34.7278 17.0144C34.5968 17.2241 34.3172 17.674 33.8017 17.8313C33.6095 19.2772 33.378 20.2644 33.0984 20.8323C32.7446 21.54 31.4734 22.7281 31.089 23.0732C30.9623 23.1912 30.8269 23.3091 30.6959 23.4227C28.5336 25.2923 27.7691 25.2923 27.5158 25.2923L27.4721 25.3011C27.4109 25.3054 27.3279 25.3142 27.2406 25.3229C27.044 25.3404 26.8125 25.3535 26.5766 25.3535C26.5635 25.3535 26.5504 25.3535 26.5373 25.3535H26.3582Z" fill="#F2F2F2"/>
<path d="M19.1156 14.0353C18.2201 14.0353 17.7789 12.9519 17.6304 12.5894C17.4906 12.253 17.6566 11.8642 17.9973 11.7244C18.338 11.589 18.7268 11.7506 18.8666 12.0914C18.9671 12.3404 19.0544 12.4976 19.12 12.5937C19.2029 12.4627 19.2947 12.2748 19.3427 12.1351C19.4825 11.7987 19.3995 11.4012 19.3034 10.9425C19.1811 10.3615 19.0282 9.64077 19.2597 8.87632C19.4257 8.33029 19.7883 7.90656 20.3038 7.6532C21.0769 7.2688 22.204 7.28627 23.3222 7.70126C23.5494 7.78425 23.8027 7.88909 24.0692 7.9983C24.8031 8.30408 25.8078 8.72343 26.332 8.64043C26.3844 8.6317 26.4325 8.6317 26.4805 8.6317C27.0702 8.68412 27.9963 8.2866 28.752 7.97646C29.001 7.87162 29.2369 7.77552 29.4509 7.70126C30.5692 7.28627 31.6962 7.2688 32.4694 7.6532C32.9849 7.90656 33.3474 8.33029 33.5134 8.87632C33.7493 9.64951 33.579 10.3659 33.4435 10.9425C33.3431 11.375 33.2557 11.7463 33.3562 12.0171C33.4435 12.1525 33.5833 12.2836 33.6401 12.2923C33.6401 12.2923 33.7974 12.2355 34.0464 11.7987C34.2298 11.4798 34.6361 11.3662 34.955 11.5453C35.2782 11.7244 35.3918 12.1307 35.2083 12.4496C34.7715 13.2271 34.2429 13.6203 33.6357 13.6203C32.749 13.6203 32.2292 12.7379 32.1724 12.6374C32.1636 12.6199 32.1505 12.5981 32.1418 12.5763C31.8491 11.8992 32.0064 11.2308 32.1462 10.6411C32.2597 10.1562 32.3689 9.69319 32.2379 9.26073C32.1767 9.06416 32.0632 8.93311 31.8797 8.84138C31.4385 8.62296 30.6697 8.66665 29.914 8.94185C29.713 9.01611 29.4902 9.10784 29.2587 9.20394C28.3545 9.57525 27.3279 10.0033 26.4674 9.95966C25.5806 10.0689 24.5104 9.61893 23.5538 9.22578C23.3048 9.12095 23.0689 9.02048 22.8592 8.94185C22.1035 8.66665 21.3347 8.62296 20.8935 8.84138C20.71 8.93311 20.5964 9.06416 20.5353 9.26073C20.4042 9.70193 20.5003 10.1693 20.6052 10.6673C20.7318 11.2614 20.876 11.9385 20.5877 12.6068C20.4916 12.8951 20.046 14.0047 19.1505 14.0353C19.1374 14.0353 19.1243 14.0353 19.1156 14.0353Z" fill="#F2F2F2"/>
<path d="M32.8145 38.668H32.8494C33.8323 38.668 34.6273 37.873 34.6273 36.8945V36.8595C34.6273 35.8811 33.8323 35.0904 32.8494 35.0904H32.8145C31.8316 35.0904 31.0322 35.8811 31.0322 36.8595V36.8945C31.0322 37.873 31.8316 38.668 32.8145 38.668Z" fill="#F2F2F2"/>
</svg>
