<svg width="23" height="23" viewBox="0 0 23 23" fill="none" xmlns="http://www.w3.org/2000/svg">
<path d="M13.4371 23H9.55595C9.34033 23 9.14921 22.9329 8.98259 22.7987C8.81598 22.6646 8.71307 22.4921 8.67386 22.2812L8.20341 19.3775C7.83098 19.2433 7.43894 19.0612 7.0273 18.8312C6.61566 18.6012 6.25302 18.3617 5.93939 18.1125L3.20492 19.3488C2.9893 19.4446 2.77368 19.459 2.55805 19.3919C2.34243 19.3248 2.17582 19.1858 2.0582 18.975L0.117612 15.6112C4.38138e-08 15.4196 -0.0294029 15.2183 0.0294029 15.0075C0.0882087 14.7967 0.20582 14.6242 0.382238 14.49L2.91089 12.6787C2.87168 12.5062 2.84718 12.3098 2.83738 12.0894C2.82758 11.869 2.82268 11.6725 2.82268 11.5C2.82268 11.3275 2.82758 11.131 2.83738 10.9106C2.84718 10.6902 2.87168 10.4938 2.91089 10.3212L0.382238 8.51C0.20582 8.37583 0.0882087 8.20333 0.0294029 7.9925C-0.0294029 7.78167 4.38138e-08 7.58042 0.117612 7.38875L2.0582 4.025C2.17582 3.81417 2.34243 3.67521 2.55805 3.60812C2.77368 3.54104 2.9893 3.55542 3.20492 3.65125L5.93939 4.8875C6.25302 4.63833 6.61566 4.39875 7.0273 4.16875C7.43894 3.93875 7.83098 3.76625 8.20341 3.65125L8.67386 0.71875C8.71307 0.507917 8.81598 0.335417 8.98259 0.20125C9.14921 0.0670833 9.34033 0 9.55595 0H13.4371C13.6528 0 13.8439 0.0670833 14.0105 0.20125C14.1771 0.335417 14.28 0.507917 14.3192 0.71875L14.7897 3.6225C15.1621 3.75667 15.559 3.93396 15.9805 4.15438C16.4019 4.37479 16.7597 4.61917 17.0537 4.8875L19.7882 3.65125C20.0038 3.55542 20.2194 3.54104 20.435 3.60812C20.6507 3.67521 20.8173 3.81417 20.9349 4.025L22.8755 7.36C22.9931 7.55167 23.0274 7.75771 22.9784 7.97812C22.9294 8.19854 22.8069 8.37583 22.6108 8.51L20.0822 10.2638C20.1214 10.4554 20.1459 10.6615 20.1557 10.8819C20.1655 11.1023 20.1704 11.3083 20.1704 11.5C20.1704 11.6917 20.1655 11.8929 20.1557 12.1037C20.1459 12.3146 20.1214 12.5158 20.0822 12.7075L22.6108 14.49C22.7873 14.6242 22.9049 14.7967 22.9637 15.0075C23.0225 15.2183 22.9931 15.4196 22.8755 15.6112L20.9349 18.975C20.8173 19.1858 20.6507 19.3248 20.435 19.3919C20.2194 19.459 20.0038 19.4446 19.7882 19.3488L17.0537 18.1125C16.7401 18.3617 16.3823 18.606 15.9805 18.8456C15.5786 19.0852 15.1817 19.2625 14.7897 19.3775L14.3192 22.2812C14.28 22.4921 14.1771 22.6646 14.0105 22.7987C13.8439 22.9329 13.6528 23 13.4371 23ZM11.4965 15.2375C12.555 15.2375 13.4567 14.8733 14.2016 14.145C14.9465 13.4167 15.3189 12.535 15.3189 11.5C15.3189 10.465 14.9465 9.58333 14.2016 8.855C13.4567 8.12667 12.555 7.7625 11.4965 7.7625C10.438 7.7625 9.53635 8.12667 8.79147 8.855C8.0466 9.58333 7.67416 10.465 7.67416 11.5C7.67416 12.535 8.0466 13.4167 8.79147 14.145C9.53635 14.8733 10.438 15.2375 11.4965 15.2375ZM11.4965 13.5125C10.9281 13.5125 10.4429 13.316 10.0411 12.9231C9.63926 12.5302 9.43834 12.0558 9.43834 11.5C9.43834 10.9442 9.63926 10.4698 10.0411 10.0769C10.4429 9.68396 10.9281 9.4875 11.4965 9.4875C12.065 9.4875 12.5501 9.68396 12.952 10.0769C13.3538 10.4698 13.5547 10.9442 13.5547 11.5C13.5547 12.0558 13.3538 12.5302 12.952 12.9231C12.5501 13.316 12.065 13.5125 11.4965 13.5125ZM10.2028 21.275H12.7903L13.2019 18.055C13.8488 17.9017 14.4613 17.6621 15.0396 17.3363C15.6178 17.0104 16.1422 16.6175 16.6126 16.1575L19.7294 17.48L20.9055 15.41L18.1416 13.4262C18.22 13.1004 18.2837 12.7794 18.3327 12.4631C18.3817 12.1469 18.4062 11.8258 18.4062 11.5C18.4062 11.1742 18.3866 10.8531 18.3474 10.5369C18.3082 10.2206 18.2396 9.89958 18.1416 9.57375L20.9055 7.59L19.7294 5.52L16.6126 6.8425C16.1618 6.34417 15.6522 5.92729 15.0837 5.59188C14.5152 5.25646 13.888 5.04083 13.2019 4.945L12.7903 1.725H10.2028L9.79117 4.945C9.12471 5.07917 8.50234 5.30917 7.92409 5.635C7.34583 5.96083 6.83128 6.36333 6.38043 6.8425L3.26372 5.52L2.08761 7.59L4.85148 9.57375C4.77307 9.89958 4.70937 10.2206 4.66036 10.5369C4.61136 10.8531 4.58686 11.1742 4.58686 11.5C4.58686 11.8258 4.61136 12.1469 4.66036 12.4631C4.70937 12.7794 4.77307 13.1004 4.85148 13.4262L2.08761 15.41L3.26372 17.48L6.38043 16.1575C6.85088 16.6175 7.37523 17.0104 7.95349 17.3363C8.53175 17.6621 9.14431 17.9017 9.79117 18.055L10.2028 21.275Z" fill="#F2F2F2"/>
</svg>
