<svg width="39" height="39" viewBox="0 0 39 39" fill="none" xmlns="http://www.w3.org/2000/svg">
<path d="M14.0156 23.1562C15.6984 23.1562 17.0625 21.7921 17.0625 20.1094C17.0625 18.4266 15.6984 17.0625 14.0156 17.0625C12.3329 17.0625 10.9688 18.4266 10.9688 20.1094C10.9688 21.7921 12.3329 23.1562 14.0156 23.1562Z" stroke="#F2F2F2" stroke-width="2" stroke-linecap="round" stroke-linejoin="round"/>
<path d="M24.9844 23.1562C26.6671 23.1562 28.0312 21.7921 28.0312 20.1094C28.0312 18.4266 26.6671 17.0625 24.9844 17.0625C23.3016 17.0625 21.9375 18.4266 21.9375 20.1094C21.9375 21.7921 23.3016 23.1562 24.9844 23.1562Z" stroke="#F2F2F2" stroke-width="2" stroke-linecap="round" stroke-linejoin="round"/>
<path d="M12.1875 29.6306C9.58128 28.0367 7.56721 25.6349 6.45186 22.7908C5.33651 19.9467 5.18096 16.8161 6.0089 13.8754C6.83684 10.9348 8.60291 8.34516 11.0383 6.50076C13.4737 4.65637 16.445 3.6582 19.5 3.6582C22.555 3.6582 25.5263 4.65637 27.9617 6.50076C30.3971 8.34516 32.1632 10.9348 32.9911 13.8754C33.819 16.8161 33.6635 19.9467 32.5481 22.7908C31.4328 25.6349 29.4187 28.0367 26.8125 29.6306V32.906C26.8125 33.2293 26.6841 33.5392 26.4555 33.7678C26.227 33.9964 25.917 34.1248 25.5938 34.1248H13.4063C13.083 34.1248 12.773 33.9964 12.5445 33.7678C12.3159 33.5392 12.1875 33.2293 12.1875 32.906V29.6306Z" stroke="#F2F2F2" stroke-width="2" stroke-linecap="round" stroke-linejoin="round"/>
<path d="M17.0625 34.125V29.25" stroke="#F2F2F2" stroke-width="2" stroke-linecap="round" stroke-linejoin="round"/>
<path d="M21.9375 34.125V29.25" stroke="#F2F2F2" stroke-width="2" stroke-linecap="round" stroke-linejoin="round"/>
</svg>
