<svg width="33" height="33" viewBox="0 0 33 33" fill="none" xmlns="http://www.w3.org/2000/svg">
<path d="M16.5 28.875C23.3345 28.875 28.875 23.3345 28.875 16.5C28.875 9.66548 23.3345 4.125 16.5 4.125C9.66548 4.125 4.125 9.66548 4.125 16.5C4.125 23.3345 9.66548 28.875 16.5 28.875Z" stroke="#F2F2F2" stroke-width="2" stroke-linecap="round" stroke-linejoin="round"/>
<path d="M16.4998 11.0859L11.3564 14.8242L13.3158 20.8828H19.6838L21.6432 14.8242L16.4998 11.0859Z" stroke="#F2F2F2" stroke-width="2" stroke-linecap="round" stroke-linejoin="round"/>
<path d="M16.5 8.25V11.0859" stroke="#F2F2F2" stroke-width="2" stroke-linecap="round" stroke-linejoin="round"/>
<path d="M21.0117 4.97559L16.5 8.2498L11.9883 4.97559" stroke="#F2F2F2" stroke-width="2" stroke-linecap="round" stroke-linejoin="round"/>
<path d="M8.64941 13.9473L11.3564 14.8238" stroke="#F2F2F2" stroke-width="2" stroke-linecap="round" stroke-linejoin="round"/>
<path d="M6.93496 8.64941L8.64941 13.9475L4.1377 17.2346" stroke="#F2F2F2" stroke-width="2" stroke-linecap="round" stroke-linejoin="round"/>
<path d="M11.6533 23.1773L13.3162 20.8828" stroke="#F2F2F2" stroke-width="2" stroke-linecap="round" stroke-linejoin="round"/>
<path d="M6.07129 23.1777H11.6529L13.3803 28.4758" stroke="#F2F2F2" stroke-width="2" stroke-linecap="round" stroke-linejoin="round"/>
<path d="M21.347 23.1773L19.6841 20.8828" stroke="#F2F2F2" stroke-width="2" stroke-linecap="round" stroke-linejoin="round"/>
<path d="M19.6196 28.4758L21.347 23.1777H26.9286" stroke="#F2F2F2" stroke-width="2" stroke-linecap="round" stroke-linejoin="round"/>
<path d="M24.3506 13.9473L21.6436 14.8238" stroke="#F2F2F2" stroke-width="2" stroke-linecap="round" stroke-linejoin="round"/>
<path d="M28.8623 17.2346L24.3506 13.9475L26.065 8.64941" stroke="#F2F2F2" stroke-width="2" stroke-linecap="round" stroke-linejoin="round"/>
</svg>
