<svg width="20" height="20" viewBox="0 0 20 20" fill="none" xmlns="http://www.w3.org/2000/svg">
<path d="M9.98752 20C8.57262 20 7.2576 19.7458 6.04245 19.2375C4.8273 18.7292 3.77029 18.025 2.87141 17.125C1.97253 16.225 1.26925 15.1667 0.761548 13.95C0.253849 12.7333 0 11.4167 0 10C0 8.6 0.253849 7.29167 0.761548 6.075C1.26925 4.85833 1.97253 3.8 2.87141 2.9C3.77029 2 4.8273 1.29167 6.04245 0.775C7.2576 0.258333 8.57262 0 9.98752 0C11.236 0 12.4012 0.2 13.4831 0.6C14.5651 1 15.5389 1.55 16.4045 2.25L15.3308 3.325C14.5984 2.74167 13.7828 2.29167 12.8839 1.975C11.985 1.65833 11.0196 1.5 9.98752 1.5C7.57387 1.5 5.55556 2.3125 3.93258 3.9375C2.30961 5.5625 1.49813 7.58333 1.49813 10C1.49813 12.4167 2.30961 14.4375 3.93258 16.0625C5.55556 17.6875 7.57387 18.5 9.98752 18.5C12.4012 18.5 14.4195 17.6875 16.0424 16.0625C17.6654 14.4375 18.4769 12.4167 18.4769 10C18.4769 9.5 18.4395 9.0125 18.3645 8.5375C18.2896 8.0625 18.1773 7.6 18.0275 7.15L19.176 6C19.4424 6.61667 19.6421 7.25833 19.7753 7.925C19.9084 8.59167 19.975 9.28333 19.975 10C19.975 11.4167 19.717 12.7333 19.201 13.95C18.685 15.1667 17.9775 16.225 17.0787 17.125C16.1798 18.025 15.1228 18.7292 13.9076 19.2375C12.6925 19.7458 11.3858 20 9.98752 20ZM8.51436 14.55L4.39451 10.4L5.5181 9.275L8.51436 12.275L18.8514 1.925L20 3.05L8.51436 14.55Z" fill="white"/>
</svg>
