<svg width="28" height="28" viewBox="0 0 28 28" fill="none" xmlns="http://www.w3.org/2000/svg">
<g clip-path="url(#clip0_725_361)">
<path d="M25.9184 2.7214C24.8975 2.23685 23.8367 2.12865 22.7383 2.39445C22.8347 2.1757 22.8841 1.94989 22.8865 1.70997C22.8841 1.48417 22.8418 1.26777 22.7571 1.05843C22.6701 0.851436 22.5477 0.667969 22.3878 0.508023C22.2302 0.348076 22.0467 0.225764 21.8397 0.138735C21.6304 0.0540575 21.4164 0.0117188 21.1906 0.0117188H6.8001C6.65897 0.0117188 6.52254 0.0281838 6.38612 0.0634662C6.2497 0.0987481 6.12033 0.148144 5.99566 0.216356C5.87335 0.282216 5.7581 0.364542 5.65695 0.46098C5.55346 0.555066 5.46172 0.663264 5.38646 0.780872C5.30884 0.89848 5.24768 1.0255 5.20299 1.15722C5.15595 1.29129 5.12772 1.43007 5.11596 1.56884C5.1042 1.70997 5.11125 1.8511 5.13478 1.98988C5.1583 2.12865 5.19828 2.26273 5.25474 2.3921C4.15628 2.1263 3.09546 2.2345 2.07228 2.71904C1.78531 2.85312 1.51952 3.02482 1.2796 3.23181C1.03733 3.4388 0.827989 3.67402 0.651578 3.93981C0.477519 4.2056 0.338742 4.49021 0.239952 4.79364C0.143513 5.09707 0.0870615 5.40755 0.0729489 5.72744C-0.0070244 7.41394 0.985583 10.9351 8.51011 15.6112C9.14049 16.2369 9.85554 16.7426 10.6553 17.126C10.3448 17.9586 10.1402 18.8172 10.0437 19.7016H9.00642C8.73121 19.7016 8.46777 19.7557 8.21374 19.8615C7.95971 19.9674 7.73625 20.1179 7.54103 20.3131C7.34815 20.5084 7.19761 20.7342 7.09177 20.9882C6.98827 21.2446 6.93417 21.5104 6.93417 21.7856V24.7069H6.74129C6.5249 24.7069 6.31556 24.7493 6.11562 24.8316C5.91569 24.9163 5.73928 25.0339 5.58639 25.1891C5.4335 25.342 5.31589 25.5184 5.23357 25.7207C5.15124 25.9207 5.1089 26.13 5.1089 26.3487C5.1089 26.5675 5.15124 26.7768 5.23357 26.9768C5.31589 27.1791 5.4335 27.3555 5.58639 27.5084C5.73928 27.6636 5.91569 27.7812 6.11562 27.8659C6.31556 27.9482 6.5249 27.9906 6.74129 27.9906H21.2447C21.4611 27.9906 21.668 27.9482 21.868 27.8659C22.0679 27.7812 22.2443 27.6636 22.3996 27.5084C22.5525 27.3555 22.6701 27.1791 22.7524 26.9768C22.8347 26.7768 22.877 26.5675 22.877 26.3487C22.877 26.13 22.8347 25.9207 22.7524 25.7207C22.6701 25.5184 22.5525 25.342 22.3996 25.1891C22.2443 25.0339 22.0679 24.9163 21.868 24.8316C21.668 24.7493 21.4611 24.7069 21.2447 24.7069H21.0494V21.7856C21.0494 21.508 20.9977 21.2422 20.8918 20.9882C20.7883 20.7318 20.6378 20.506 20.4426 20.3108C20.2497 20.1155 20.0262 19.965 19.7722 19.8592C19.5182 19.7533 19.2524 19.7016 18.9795 19.7016H17.9422C17.8481 18.8172 17.6459 17.9586 17.3354 17.126C18.1328 16.7426 18.8455 16.2369 19.4735 15.6112C27.0004 10.9375 27.993 7.41394 27.9083 5.7298C27.8965 5.4099 27.8401 5.09942 27.7436 4.79599C27.6449 4.49492 27.5084 4.21031 27.332 3.94451C27.158 3.67872 26.951 3.44351 26.7087 3.23417C26.4688 3.02718 26.2053 2.85547 25.9184 2.7214ZM21.6963 26.3511C21.6963 26.4758 21.6539 26.5793 21.5669 26.6663C21.4799 26.7557 21.3764 26.798 21.2541 26.798H6.7507C6.62604 26.798 6.52019 26.7533 6.43316 26.6663C6.34613 26.5769 6.30144 26.4711 6.30144 26.3464C6.30144 26.2217 6.34613 26.1159 6.43316 26.0289C6.52019 25.9395 6.62604 25.8971 6.7507 25.8971H21.2541C21.3764 25.8971 21.4822 25.9418 21.5693 26.0312C21.6563 26.1206 21.6986 26.2264 21.6963 26.3511ZM21.6116 11.6878C21.7245 11.1468 21.7833 10.6011 21.7833 10.0507V5.33934C22.9547 4.95124 24.159 5.13235 24.5824 5.80507C25.1398 6.68947 24.5612 8.65352 21.6116 11.6831V11.6878ZM6.8001 1.20191H21.1906C21.3246 1.20896 21.4399 1.26306 21.5316 1.3595C21.6257 1.45829 21.6704 1.5759 21.6704 1.71232C21.6704 1.8464 21.6257 1.964 21.5316 2.06279C21.4399 2.16158 21.3246 2.21333 21.1906 2.22039H6.8001C6.72953 2.22509 6.66367 2.21568 6.59781 2.18981C6.53195 2.16629 6.47315 2.13101 6.42375 2.08161C6.37201 2.03457 6.33437 1.97812 6.30615 1.91226C6.27792 1.84875 6.26616 1.78054 6.26616 1.71232C6.26616 1.64176 6.27792 1.57355 6.30615 1.51004C6.33437 1.44653 6.37201 1.39008 6.42375 1.34068C6.47315 1.29364 6.53195 1.25601 6.59781 1.23248C6.66367 1.20896 6.72953 1.1972 6.8001 1.20191ZM3.4083 5.80507C3.83168 5.13235 5.03599 4.95124 6.20736 5.33934V10.0507C6.20736 10.6011 6.26381 11.1468 6.37906 11.6878C3.42947 8.65352 2.85084 6.68947 3.4083 5.80507ZM1.25843 5.7839C1.27255 5.3511 1.40191 4.95594 1.64183 4.59606C1.88175 4.23618 2.19694 3.96804 2.58975 3.78927C3.65527 3.26239 5.07362 3.37059 6.20501 4.04801V4.09976C4.61966 3.69754 3.079 4.09976 2.40393 5.16763C1.89116 5.97913 1.60185 7.59976 3.73525 10.4412C1.496 8.14781 1.2255 6.53423 1.25843 5.7839ZM19.871 21.7856V24.6905H8.11966V21.7856C8.11966 21.6656 8.14082 21.5527 8.18552 21.4422C8.23256 21.334 8.29607 21.2375 8.37839 21.1528C8.46307 21.0705 8.55716 21.0047 8.66771 20.96C8.77591 20.9153 8.88881 20.8918 9.00642 20.8918H18.9819C19.0995 20.8918 19.2147 20.9153 19.3229 20.96C19.4311 21.0047 19.5276 21.0705 19.6099 21.1528C19.6946 21.2375 19.7581 21.334 19.8028 21.4422C19.8475 21.5527 19.871 21.6656 19.871 21.7856ZM16.7544 19.7016H11.2363C11.3256 18.963 11.502 18.2479 11.7655 17.5517C13.2544 18.001 14.7457 18.001 16.2346 17.5517C16.4933 18.2479 16.6674 18.963 16.7544 19.7016ZM13.9953 16.6908C13.5625 16.6908 13.1321 16.6485 12.7087 16.5615C12.283 16.4768 11.869 16.3498 11.4691 16.1828C11.0693 16.0158 10.6882 15.8111 10.3283 15.5688C9.96845 15.3266 9.63444 15.0514 9.32866 14.7432C9.02053 14.4351 8.74768 14.1011 8.50776 13.7389C8.26549 13.3766 8.0632 12.9932 7.8962 12.591C7.73155 12.1888 7.60453 11.7725 7.51986 11.3444C7.43518 10.9186 7.39284 10.4858 7.39284 10.0507V3.41058H20.5978V10.0507C20.5978 10.4858 20.5555 10.9186 20.4708 11.3444C20.3861 11.7725 20.2615 12.1888 20.0945 12.591C19.9275 12.9932 19.7252 13.3743 19.4829 13.7389C19.243 14.1011 18.9701 14.4351 18.662 14.7432C18.3562 15.0514 18.0222 15.3266 17.6623 15.5688C17.3025 15.8111 16.9214 16.0158 16.5215 16.1828C16.1217 16.3498 15.7077 16.4768 15.2843 16.5615C14.8586 16.6461 14.4281 16.6908 13.9953 16.6908ZM24.2554 10.4412C26.3841 7.59976 26.0948 5.97677 25.5867 5.16528C24.9117 4.0974 23.3663 3.69519 21.7857 4.09976V4.04566C22.9147 3.37059 24.333 3.26239 25.4009 3.78927C25.7914 3.96568 26.1089 4.23618 26.3488 4.59371C26.5887 4.95359 26.7158 5.34875 26.7322 5.78154C26.7652 6.53423 26.4923 8.14781 24.2554 10.4412Z" fill="#8E66FF"/>
<path d="M15.2114 7.58097L13.9953 5.10181L12.7793 7.58097L10.0602 7.97849L12.0266 9.91431L11.5632 12.6334L13.9953 11.3468L16.4275 12.6334L15.9641 9.90725L17.9328 7.97378L15.2114 7.58097ZM14.8562 10.4577L13.9953 10.0013L13.1344 10.4577L13.2991 9.49327L12.6029 8.81115L13.5649 8.66296L13.9953 7.78561L14.4281 8.67002L15.3925 8.8182L14.6963 9.50033L14.8562 10.4577Z" fill="#8E66FF"/>
</g>
<defs>
<clipPath id="clip0_725_361">
<rect width="28" height="28" fill="white"/>
</clipPath>
</defs>
</svg>
