<svg width="36" height="36" viewBox="0 0 36 36" fill="none" xmlns="http://www.w3.org/2000/svg">
<g clip-path="url(#clip0_6_13)">
<path d="M33.3236 3.49901C32.0111 2.87602 30.6472 2.73691 29.2349 3.07864C29.3589 2.79739 29.4224 2.50707 29.4254 2.1986C29.4224 1.90828 29.3679 1.63006 29.2591 1.3609C29.1472 1.09477 28.9899 0.858887 28.7843 0.653242C28.5817 0.447596 28.3458 0.290338 28.0796 0.178443C27.8105 0.0695723 27.5353 0.0151367 27.245 0.0151367H8.74294C8.56149 0.0151367 8.38609 0.0363061 8.21068 0.0816692C8.03528 0.127032 7.86895 0.19054 7.70867 0.278242C7.55141 0.362919 7.40322 0.468766 7.27318 0.592758C7.14012 0.713725 7.02217 0.852838 6.9254 1.00405C6.8256 1.15526 6.74697 1.31856 6.68951 1.48792C6.62903 1.6603 6.59274 1.83873 6.57762 2.01715C6.5625 2.1986 6.57157 2.38006 6.60181 2.55848C6.63205 2.73691 6.68346 2.90929 6.75604 3.07562C5.34375 2.73389 3.97984 2.873 2.66431 3.49598C2.29536 3.66836 1.95363 3.88913 1.64516 4.15526C1.33367 4.42139 1.06451 4.72381 0.837699 5.06554C0.613909 5.40727 0.435481 5.7732 0.308466 6.16332C0.184473 6.55344 0.111893 6.95264 0.0937478 7.36393C-0.00907497 9.53227 1.26713 14.0595 10.9415 20.0716C11.752 20.876 12.6714 21.5262 13.6996 22.0192C13.3004 23.0897 13.0373 24.1936 12.9133 25.3307H11.5796C11.2258 25.3307 10.8871 25.4002 10.5605 25.5363C10.2339 25.6724 9.94657 25.8659 9.69556 26.117C9.44758 26.368 9.25403 26.6583 9.11794 26.9849C8.98488 27.3145 8.91532 27.6563 8.91532 28.0101V31.7661H8.66734C8.38911 31.7661 8.11996 31.8206 7.8629 31.9264C7.60584 32.0353 7.37903 32.1865 7.18246 32.3861C6.98588 32.5827 6.83467 32.8095 6.72883 33.0696C6.62298 33.3266 6.56855 33.5958 6.56855 33.877C6.56855 34.1583 6.62298 34.4274 6.72883 34.6845C6.83467 34.9446 6.98588 35.1714 7.18246 35.368C7.37903 35.5676 7.60584 35.7188 7.8629 35.8276C8.11996 35.9335 8.38911 35.9879 8.66734 35.9879H27.3145C27.5927 35.9879 27.8589 35.9335 28.1159 35.8276C28.373 35.7188 28.5998 35.5676 28.7994 35.368C28.996 35.1714 29.1472 34.9446 29.253 34.6845C29.3589 34.4274 29.4133 34.1583 29.4133 33.877C29.4133 33.5958 29.3589 33.3266 29.253 33.0696C29.1472 32.8095 28.996 32.5827 28.7994 32.3861C28.5998 32.1865 28.373 32.0353 28.1159 31.9264C27.8589 31.8206 27.5927 31.7661 27.3145 31.7661H27.0635V28.0101C27.0635 27.6532 26.997 27.3115 26.8609 26.9849C26.7278 26.6553 26.5343 26.3649 26.2833 26.1139C26.0353 25.8629 25.748 25.6694 25.4214 25.5333C25.0948 25.3972 24.753 25.3307 24.4022 25.3307H23.0685C22.9476 24.1936 22.6875 23.0897 22.2883 22.0192C23.3135 21.5262 24.2298 20.876 25.0373 20.0716C34.7147 14.0625 35.9909 9.53227 35.8821 7.36695C35.8669 6.95566 35.7944 6.55647 35.6704 6.16635C35.5433 5.77925 35.3679 5.41332 35.1411 5.07159C34.9173 4.72985 34.6512 4.42743 34.3397 4.15828C34.0312 3.89215 33.6925 3.67139 33.3236 3.49901ZM27.8952 33.8801C27.8952 34.0403 27.8407 34.1734 27.7288 34.2853C27.6169 34.4002 27.4839 34.4547 27.3266 34.4547H8.67943C8.51915 34.4547 8.38306 34.3972 8.27117 34.2853C8.15927 34.1704 8.10181 34.0343 8.10181 33.874C8.10181 33.7137 8.15927 33.5776 8.27117 33.4657C8.38306 33.3508 8.51915 33.2964 8.67943 33.2964H27.3266C27.4839 33.2964 27.62 33.3538 27.7319 33.4688C27.8437 33.5837 27.8982 33.7198 27.8952 33.8801ZM27.7863 15.0272C27.9314 14.3317 28.0071 13.6301 28.0071 12.9224V6.86494C29.5131 6.36594 31.0615 6.59881 31.6058 7.46373C32.3226 8.60082 31.5786 11.126 27.7863 15.0212V15.0272ZM8.74294 1.54538H27.245C27.4173 1.55445 27.5655 1.62401 27.6835 1.748C27.8044 1.87502 27.8619 2.02623 27.8619 2.20163C27.8619 2.37401 27.8044 2.52522 27.6835 2.65223C27.5655 2.77925 27.4173 2.84578 27.245 2.85485H8.74294C8.65222 2.8609 8.56754 2.84881 8.48286 2.81554C8.39818 2.7853 8.32258 2.73993 8.25907 2.67643C8.19254 2.61594 8.14415 2.54336 8.10786 2.45868C8.07157 2.37703 8.05645 2.28933 8.05645 2.20163C8.05645 2.1109 8.07157 2.0232 8.10786 1.94155C8.14415 1.85989 8.19254 1.78731 8.25907 1.72381C8.32258 1.66332 8.39818 1.61494 8.48286 1.58469C8.56754 1.55445 8.65222 1.53933 8.74294 1.54538ZM4.38205 7.46373C4.92641 6.59881 6.4748 6.36594 7.98084 6.86494V12.9224C7.98084 13.6301 8.05342 14.3317 8.20161 15.0272C4.40927 11.126 3.66532 8.60082 4.38205 7.46373ZM1.61794 7.43651C1.63609 6.88006 1.80242 6.37199 2.11088 5.90929C2.41935 5.44659 2.82459 5.10183 3.32963 4.87199C4.69959 4.19457 6.52318 4.33368 7.97782 5.20465V5.27119C5.93951 4.75405 3.95867 5.27119 3.09072 6.64417C2.43145 7.68752 2.05947 9.77118 4.80242 13.4244C1.92338 10.4758 1.5756 8.40123 1.61794 7.43651ZM25.5484 28.0101V31.745H10.4395V28.0101C10.4395 27.8559 10.4667 27.7107 10.5242 27.5686C10.5847 27.4295 10.6663 27.3055 10.7722 27.1966C10.881 27.0907 11.002 27.0061 11.1442 26.9486C11.2833 26.8911 11.4284 26.8609 11.5796 26.8609H24.4052C24.5564 26.8609 24.7046 26.8911 24.8437 26.9486C24.9829 27.0061 25.1069 27.0907 25.2127 27.1966C25.3216 27.3055 25.4032 27.4295 25.4607 27.5686C25.5181 27.7107 25.5484 27.8559 25.5484 28.0101ZM21.5413 25.3307H14.4466C14.5615 24.3811 14.7883 23.4617 15.127 22.5665C17.0413 23.1442 18.9587 23.1442 20.873 22.5665C21.2056 23.4617 21.4294 24.3811 21.5413 25.3307ZM17.9939 21.4597C17.4375 21.4597 16.8841 21.4053 16.3397 21.2934C15.7923 21.1845 15.2601 21.0212 14.746 20.8065C14.2319 20.5917 13.7419 20.3286 13.2792 20.0172C12.8165 19.7057 12.3871 19.3518 11.9939 18.9557C11.5978 18.5595 11.247 18.1301 10.9385 17.6643C10.627 17.1986 10.3669 16.7057 10.1522 16.1885C9.94052 15.6714 9.77722 15.1361 9.66834 14.5857C9.55947 14.0383 9.50504 13.4819 9.50504 12.9224V4.3851H26.4829V12.9224C26.4829 13.4819 26.4284 14.0383 26.3196 14.5857C26.2107 15.1361 26.0504 15.6714 25.8357 16.1885C25.621 16.7057 25.3609 17.1956 25.0494 17.6643C24.7409 18.1301 24.3901 18.5595 23.9939 18.9557C23.6008 19.3518 23.1714 19.7057 22.7087 20.0172C22.246 20.3286 21.756 20.5917 21.2419 20.8065C20.7278 21.0212 20.1956 21.1845 19.6512 21.2934C19.1038 21.4022 18.5504 21.4597 17.9939 21.4597ZM31.1855 13.4244C33.9224 9.77118 33.5504 7.68449 32.8972 6.64114C32.0292 5.26816 30.0423 4.75102 28.0101 5.27119V5.20163C29.4617 4.33368 31.2853 4.19457 32.6583 4.87199C33.1603 5.09881 33.5685 5.44659 33.877 5.90627C34.1855 6.36897 34.3488 6.87703 34.37 7.43348C34.4123 8.40122 34.0615 10.4758 31.1855 13.4244Z" fill="#EB5757"/>
<path d="M19.5574 9.74695L17.9939 6.55945L16.4304 9.74695L12.9344 10.258L15.4627 12.7469L14.8669 16.2429L17.9939 14.5887L21.1209 16.2429L20.5252 12.7379L23.0564 10.252L19.5574 9.74695ZM19.1008 13.4455L17.9939 12.8588L16.8871 13.4455L17.0988 12.2056L16.2036 11.3286L17.4405 11.1381L17.9939 10.0101L18.5504 11.1472L19.7903 11.3377L18.8951 12.2147L19.1008 13.4455Z" fill="#EB5757"/>
</g>
<defs>
<clipPath id="clip0_6_13">
<rect width="36" height="36" fill="white"/>
</clipPath>
</defs>
</svg>
